<svg width="270px" height="378px" viewBox="0 0 270 378" version="1.1" xmlns="http://www.w3.org/2000/svg" xmlns:xlink="http://www.w3.org/1999/xlink">
    <g id="Page-1" stroke="none" stroke-width="1" fill="none" fill-rule="evenodd">
        <g id="Logo" transform="translate(0.000000, 0.000000)">
            <g id="Bazaar" transform="translate(0.000000, 314.000000)">
                <rect id="Rectangle" fill="#1A0804" x="0" y="0" width="270" height="64"></rect>
                <path d="M34.6117008,52.2946323 C43.4630721,52.2946323 49.192115,47.5696427 49.192115,40.3819312 L49.192115,40.3246585 C49.192115,34.941034 44.4942998,30.8174067 38.9371282,30.6742252 L38.9371282,30.4451347 C43.7495242,29.8437724 47.4447569,26.2355985 47.4447569,21.4533363 L47.4447569,21.3960637 C47.4447569,14.8669871 42.4604896,10.9724502 33.9242157,10.9724502 L13.6147586,10.9724502 L13.6147586,52.2946323 L34.6117008,52.2946323 Z M30.0183104,27.1772275 L25.7434028,27.1772275 L25.7434028,19.0748388 L30.5245495,19.0748388 C33.5619839,19.0748388 35.4463182,20.5630326 35.4463182,22.9606783 L35.4463182,23.0157966 C35.4463182,25.6063562 33.5901083,27.1772275 30.0183104,27.1772275 Z M31.0515176,43.3820048 L25.7434028,43.3820048 L25.7434028,34.4693773 L30.7875782,34.4693773 C34.8933023,34.4693773 37.0634707,36.0588905 37.0634707,38.8689227 L37.0634707,38.925691 C37.0634707,41.7924916 34.8639757,43.3820048 31.0515176,43.3820048 Z M63.5314528,52.2946323 L65.6708338,44.076014 L77.993668,44.076014 L80.1330489,52.2946323 L92.8552342,52.2946323 L79.4199219,10.9724502 L64.2445798,10.9724502 L50.8092675,52.2946323 L63.5314528,52.2946323 Z M75.8751323,35.2796161 L67.7893695,35.2796161 L71.7150659,20.6953165 L71.9494358,20.6953165 L75.8751323,35.2796161 Z M129.241167,52.2946323 L129.241167,42.6728352 L110.252509,42.6728352 L110.252509,42.4437448 L128.555862,18.5610699 L128.555862,10.9724502 L96.2608656,10.9724502 L96.2608656,20.5942472 L114.450001,20.5942472 L114.450001,20.8233377 L96.0895393,44.6773763 L96.0895393,52.2946323 L129.241167,52.2946323 Z M144.389081,52.2946323 L146.528462,44.076014 L158.851296,44.076014 L160.990677,52.2946323 L173.712862,52.2946323 L160.27755,10.9724502 L145.102208,10.9724502 L131.666896,52.2946323 L144.389081,52.2946323 Z M156.73276,35.2796161 L148.646998,35.2796161 L152.572694,20.6953165 L152.807064,20.6953165 L156.73276,35.2796161 Z M188.0522,52.2946323 L190.191581,44.076014 L202.514415,44.076014 L204.653796,52.2946323 L217.375982,52.2946323 L203.940669,10.9724502 L188.765327,10.9724502 L175.330015,52.2946323 L188.0522,52.2946323 Z M200.39588,35.2796161 L192.310117,35.2796161 L196.235813,20.6953165 L196.470183,20.6953165 L200.39588,35.2796161 Z M233.343605,52.2946323 L233.343605,38.7210257 L237.252896,38.7210257 L243.665257,52.2946323 L256.996219,52.2946323 L249.290136,36.9169387 C253.227551,34.9696703 255.814995,30.3305895 255.814995,25.1760554 L255.814995,25.1187828 C255.814995,15.9551665 250.133868,10.9724502 239.699718,10.9724502 L221.418863,10.9724502 L221.418863,52.2946323 L233.343605,52.2946323 Z M237.808506,30.4181829 L232.738931,30.4181829 L232.738931,19.8850777 L237.808506,19.8850777 C241.016373,19.8850777 243.250423,22.0389059 243.250423,25.1368781 L243.250423,25.1958871 C243.250423,28.3233637 241.073656,30.4181829 237.808506,30.4181829 Z" id="BAZAAR" fill="#FFFCF2" fill-rule="nonzero"></path>
            </g>
            <g>
                <g id="Heart" transform="translate(134.646520, 64.710023) rotate(-8.000000) translate(-134.646520, -64.710023) translate(68.146520, 8.710023)" fill="#FDCA40" fill-rule="nonzero">
                    <path d="M66.6577464,112 C65.3822226,112 64.1066987,111.703704 62.8311748,111.407407 C12.4479823,92.7407407 -4.4527089,57.7777778 0.968267519,31.4074074 C4.79483911,12.4444444 19.7822445,0 38.5962215,0 C47.5248885,0 57.4101984,2.96296296 66.6577464,8.59259259 C75.9052944,2.96296296 85.4717234,0 94.4003904,0 C113.214367,0 128.201773,12.1481481 132.028344,31.1111111 C137.449321,57.1851852 120.622801,92.4444444 70.5584897,111.407407 C69.0356495,111.703704 67.9332703,112 66.6577464,112 Z" id="heart"></path>
                </g>
                <g id="Box" transform="translate(0.000000, 110.000000)">
                    <polygon id="box-main" fill="#6C2C0D" points="137 32.4991506 107.973214 56.6756757 30 31.9955869 30 132.896496 137 171 243 132.896496 243 30 163.125 58.5810811"></polygon>
                    <polygon id="box-shadow" fill="#2A1105" points="157.220957 42.2957119 243 32 243 59.1724895 176.4375 84.8888889 138.118831 32.8904382 137 32.4991506 121.285714 100 30 67.2766173 30 32.2561519 137 32.4991506"></polygon>
                    <polygon id="box-top-right" fill="#A84616" points="30.4444444 0 137 32.4991506 109.866606 60 0 24.8522916"></polygon>
                    <polygon id="box-top-left" fill="#994015" points="137 32.4991506 243.4 -1.41373024e-13 270 24.78125 163.6 61"></polygon>
                </g>
            </g>
        </g>
    </g>
</svg>
