<?xml version="1.0" encoding="UTF-8"?>
<svg width="1200px" height="218px" viewBox="0 0 1200 218" version="1.1" xmlns="http://www.w3.org/2000/svg" xmlns:xlink="http://www.w3.org/1999/xlink">
    <title>flashback</title>
    <g id="flashback" stroke="none" stroke-width="1" fill="none" fill-rule="evenodd">
        <g id="Group" transform="translate(294.000000, 73.000000)" fill-rule="nonzero">
<g class="flash-pink">
            <path d="M23.7327997,70.3163686 L23.7327997,44.2407153 L43.3118986,44.2407153 L43.3118986,27.9312242 L23.7327997,27.9312242 L23.7327997,18.3603851 L50.9477471,18.3603851 L50.9477471,1.17193948 L2,1.17193948 L2,70.3163686 L23.7327997,70.3163686 Z M100.972345,70.3163686 L100.972345,53.909216 L80.0227089,53.909216 L80.0227089,1.17193948 L58.2899092,1.17193948 L58.2899092,70.3163686 L100.972345,70.3163686 Z M129.935426,70.3163686 L133.361768,59.866575 L156.465105,59.866575 L159.891447,70.3163686 L182.798993,70.3163686 L157.541955,1.17193948 L132.480709,1.17193948 L107.125776,70.3163686 L129.935426,70.3163686 Z M151.178748,43.5570839 L138.648125,43.5570839 L144.913436,24.3177442 L151.178748,43.5570839 Z M214.810819,71 C220.292967,71 225.024583,70.0559376 229.005666,68.1678129 C232.986749,66.2796882 236.02151,63.6591013 238.109947,60.3060523 C240.198384,56.9530032 241.242603,53.1604768 241.242603,48.9284732 C241.242603,44.8917928 240.198384,41.5387437 238.109947,38.869326 C236.02151,36.1999083 233.557806,34.1164603 230.718837,32.6189821 C227.879868,31.1215039 224.27405,29.5589179 219.901385,27.9312242 C216.116093,26.4988537 213.358703,25.2780834 211.629216,24.2689133 C209.899729,23.2597432 209.034985,21.9738652 209.034985,20.4112792 C209.034985,19.3044475 209.328672,18.4417698 209.916045,17.8232462 C210.503418,17.2047226 211.25395,16.8954608 212.167641,16.8954608 C213.472914,16.8954608 214.582396,17.3186612 215.496088,18.1650619 C216.409779,19.0114626 216.899257,20.4112792 216.96452,22.3645117 L216.96452,22.3645117 L240.361543,22.3645117 C240.100489,15.2677671 237.473626,9.76616231 232.480956,5.85969739 C227.488286,1.95323246 220.749813,0 212.265536,0 C207.240234,0 202.720726,0.813846859 198.707011,2.44154058 C194.693295,4.0692343 191.528008,6.46194406 189.211148,9.61966988 C186.894288,12.7773957 185.735858,16.6024759 185.735858,21.0949106 C185.670594,25.5873453 186.682181,29.2659331 188.770618,32.130674 C190.859055,34.9954149 193.35539,37.1765245 196.259623,38.6740028 C199.163856,40.171481 202.834937,41.7015131 207.272866,43.264099 C210.992895,44.566254 213.733969,45.7219166 215.496088,46.7310867 C217.258207,47.7402568 218.139266,49.0586887 218.139266,50.6863824 C218.139266,51.8583219 217.731368,52.7209995 216.915572,53.2744154 C216.099777,53.8278313 215.104506,54.1045392 213.92976,54.1045392 C210.73184,54.1045392 208.969721,52.1187529 208.643403,48.1471802 L208.643403,48.1471802 L185.540067,48.1471802 C185.996912,55.6345713 188.917461,61.3152224 194.301713,65.1891334 C199.685965,69.0630445 206.522334,71 214.810819,71 Z M270.611251,70.3163686 L270.611251,43.3617607 L291.2672,43.3617607 L291.2672,70.3163686 L313,70.3163686 L313,1.17193948 L291.2672,1.17193948 L291.2672,26.0756534 L270.611251,26.0756534 L270.611251,1.17193948 L248.878451,1.17193948 L248.878451,70.3163686 L270.611251,70.3163686 Z" id="flash-pink" fill="#FF71CB"></path>
</g>
<g class="back-blue">
            <path d="M364.295055,69.5138889 C371.795381,69.5138889 377.551065,67.8773148 381.562109,64.6041667 C385.573153,61.3310185 387.578675,56.6805556 387.578675,50.6527778 C387.578675,46.6990741 386.421016,43.2152778 384.105698,40.2013889 C381.79038,37.1875 378.545674,35.1944444 374.371579,34.2222222 C377.893471,33.3148148 380.714246,31.4837963 382.833903,28.7291667 C384.953561,25.974537 386.013389,22.587963 386.013389,18.5694444 C386.013389,12.7361111 383.991562,8.2962963 379.947909,5.25 C375.904255,2.2037037 370.360536,0.680555556 363.316751,0.680555556 L363.316751,0.680555556 L328,0.680555556 L328,69.5138889 L364.295055,69.5138889 Z M358.131744,27.5138889 L349.718335,27.5138889 L349.718335,17.7916667 L358.131744,17.7916667 C360.08835,17.7916667 361.5395,18.1967593 362.485194,19.0069444 C363.430887,19.8171296 363.903733,21.0648148 363.903733,22.75 C363.903733,24.3703704 363.430887,25.5694444 362.485194,26.3472222 C361.5395,27.125 360.08835,27.5138889 358.131744,27.5138889 L358.131744,27.5138889 Z M359.599199,52.2083333 L349.718335,52.2083333 L349.718335,42.4861111 L359.599199,42.4861111 C363.447192,42.4861111 365.371188,44.1388889 365.371188,47.4444444 C365.371188,49.1296296 364.898342,50.3449074 363.952649,51.0902778 C363.006955,51.8356481 361.555805,52.2083333 359.599199,52.2083333 L359.599199,52.2083333 Z M414.915266,69.5138889 L418.339328,59.1111111 L441.427287,59.1111111 L444.851349,69.5138889 L467.743647,69.5138889 L442.503421,0.680555556 L417.458855,0.680555556 L392.120797,69.5138889 L414.915266,69.5138889 Z M436.144449,42.875 L423.622166,42.875 L429.883307,23.7222222 L436.144449,42.875 Z M503.521599,70 C509.52186,70 514.886223,68.8819444 519.614689,66.6458333 C524.343155,64.4097222 528.191149,61.25 531.158669,57.1666667 C534.126189,53.0833333 536.099101,48.3194444 537.077404,42.875 L537.077404,42.875 L514.185106,42.875 C513.141582,45.1435185 511.657822,46.9097222 509.733825,48.1736111 C507.809829,49.4375 505.608646,50.0694444 503.130278,50.0694444 C499.477945,50.0694444 496.59195,48.7083333 494.472293,45.9861111 C492.352636,43.2638889 491.292807,39.6018519 491.292807,35 C491.292807,30.3981481 492.352636,26.7361111 494.472293,24.0138889 C496.59195,21.2916667 499.477945,19.9305556 503.130278,19.9305556 C505.608646,19.9305556 507.809829,20.5625 509.733825,21.8263889 C511.657822,23.0902778 513.141582,24.8564815 514.185106,27.125 L514.185106,27.125 L537.077404,27.125 C536.099101,21.6805556 534.126189,16.9166667 531.158669,12.8333333 C528.191149,8.75 524.343155,5.59027778 519.614689,3.35416667 C514.886223,1.11805556 509.52186,0 503.521599,0 C496.543035,0 490.477554,1.47453704 485.325156,4.42361111 C480.172759,7.37268519 476.21063,11.5046296 473.438771,16.8194444 C470.666911,22.1342593 469.280981,28.1944444 469.280981,35 C469.280981,41.8055556 470.666911,47.8657407 473.438771,53.1805556 C476.21063,58.4953704 480.172759,62.6273148 485.325156,65.5763889 C490.477554,68.525463 496.543035,70 503.521599,70 Z M568.019742,69.5138889 L568.019742,39.6666667 L588.172791,69.5138889 L614,69.5138889 L588.564113,33.6388889 L612.434715,0.680555556 L587.8793,0.680555556 L568.019742,29.6527778 L568.019742,0.680555556 L546.301407,0.680555556 L546.301407,69.5138889 L568.019742,69.5138889 Z" id="back-blue" fill="#66D1FF"></path>
        </g>
    </g>
</svg>
