<svg width="612" height="69" viewBox="0 0 612 69" xmlns="http://www.w3.org/2000/svg">
  <g fill="none">
      <g class="flash-pink"><path
    d="M21.7327997,69 L21.7327997,42.9788136 L41.3118986,42.9788136 L41.3118986,26.7033898 L21.7327997,26.7033898 L21.7327997,17.1525424 L48.9477471,17.1525424 L48.9477471,0 L0,0 L0,69 L21.7327997,69 Z M98.9723446,69 L98.9723446,52.6271186 L78.0227089,52.6271186 L78.0227089,0 L56.2899092,0 L56.2899092,69 L98.9723446,69 Z M127.935426,69 L131.361768,58.5720339 L154.465105,58.5720339 L157.891447,69 L180.798993,69 L155.541955,0 L130.480709,0 L105.125776,69 L127.935426,69 Z M149.178748,42.5570839 L136.648125,42.5570839 L142.913436,23.3177442 L149.178748,42.5570839 Z M212.810819,69 C218.292967,69 223.024583,68.0825309 227.005666,66.2475928 C230.986749,64.4126547 234.02151,61.8658872 236.109947,58.6072902 C238.198384,55.3486933 239.242603,51.6629986 239.242603,47.5502063 C239.242603,43.6272352 238.198384,40.3686382 236.109947,37.7744154 C234.02151,35.1801926 231.557806,33.1554333 228.718837,31.7001376 C225.879868,30.2448418 222.27405,28.7262724 217.901385,27.1444292 C214.116093,25.7524072 211.358703,24.5660248 209.629216,23.585282 C207.899729,22.6045392 207.034985,21.3548831 207.034985,19.8363136 C207.034985,18.7606602 207.328672,17.9222834 207.916045,17.3211829 C208.503418,16.7200825 209.25395,16.4195323 210.167641,16.4195323 C211.472914,16.4195323 212.582396,16.8308116 213.496088,17.65337 C214.409779,18.4759285 214.899257,19.8363136 214.96452,21.7345254 L214.96452,21.7345254 L238.361543,21.7345254 C238.100489,14.8376891 235.473626,9.49105915 230.480956,5.69463549 C225.488286,1.89821183 218.749813,0 210.265536,0 C205.240234,0 200.720726,0.790921596 196.707011,2.37276479 C192.693295,3.95460798 189.528008,6.27991747 187.211148,9.34869326 C184.894288,12.4174691 183.735858,16.1348006 183.735858,20.5006878 C183.670594,24.866575 184.682181,28.4415406 186.770618,31.2255846 C188.859055,34.0096286 191.35539,36.1292985 194.259623,37.5845942 C197.163856,39.03989 200.834937,40.5268226 205.272866,42.045392 C208.992895,43.3108666 211.733969,44.4339752 213.496088,45.414718 C215.258207,46.3954608 216.139266,47.6767538 216.139266,49.258597 C216.139266,50.3975241 215.731368,51.235901 214.915572,51.7737276 C214.099777,52.3115543 213.104506,52.5804677 211.92976,52.5804677 C208.73184,52.5804677 206.969721,50.650619 206.643403,46.7909216 L206.643403,46.7909216 L183.540067,46.7909216 C183.996912,54.0674003 186.917461,59.588033 192.301713,63.3528198 C197.685965,67.1176066 204.522334,69 212.810819,69 Z M268.611251,69 L268.611251,42.1016949 L289.2672,42.1016949 L289.2672,69 L311,69 L311,0 L289.2672,0 L289.2672,24.8516949 L268.611251,24.8516949 L268.611251,0 L246.878451,0 L246.878451,69 L268.611251,69 Z"
    fill="#FF71CB"/>
  </g>
  <g class="back-blue"><path
    d="M362.295055,69 C369.795381,69 375.551065,67.3594633 379.562109,64.0783898 C383.573153,60.7973164 385.578675,56.1355932 385.578675,50.0932203 C385.578675,46.1299435 384.421016,42.6377119 382.105698,39.6165254 C379.79038,36.595339 376.545674,34.5974576 372.371579,33.6228814 C375.893471,32.7132768 378.714246,30.8778249 380.833903,28.1165254 C382.953561,25.355226 384.013389,21.960452 384.013389,17.9322034 C384.013389,12.0847458 381.991562,7.63418079 377.947909,4.58050847 C373.904255,1.52683616 368.360536,0 361.316751,0 L361.316751,0 L326,0 L326,69 L362.295055,69 Z M356.131744,26.5138889 L347.718335,26.5138889 L347.718335,16.7916667 L356.131744,16.7916667 C358.08835,16.7916667 359.5395,17.1967593 360.485194,18.0069444 C361.430887,18.8171296 361.903733,20.0648148 361.903733,21.75 C361.903733,23.3703704 361.430887,24.5694444 360.485194,25.3472222 C359.5395,26.125 358.08835,26.5138889 356.131744,26.5138889 L356.131744,26.5138889 Z M357.599199,51.2083333 L347.718335,51.2083333 L347.718335,41.4861111 L357.599199,41.4861111 C361.447192,41.4861111 363.371188,43.1388889 363.371188,46.4444444 C363.371188,48.1296296 362.898342,49.3449074 361.952649,50.0902778 C361.006955,50.8356481 359.555805,51.2083333 357.599199,51.2083333 L357.599199,51.2083333 Z M412.915266,69 L416.339328,58.5720339 L439.427287,58.5720339 L442.851349,69 L465.743647,69 L440.503421,0 L415.458855,0 L390.120797,69 L412.915266,69 Z M434.144449,41.875 L421.622166,41.875 L427.883307,22.7222222 L434.144449,41.875 Z M501.521599,69 C507.52186,69 512.886223,67.8979167 517.614689,65.69375 C522.343155,63.4895833 526.191149,60.375 529.158669,56.35 C532.126189,52.325 534.099101,47.6291667 535.077404,42.2625 L535.077404,42.2625 L512.185106,42.2625 C511.141582,44.4986111 509.657822,46.2395833 507.733825,47.4854167 C505.809829,48.73125 503.608646,49.3541667 501.130278,49.3541667 C497.477945,49.3541667 494.59195,48.0125 492.472293,45.3291667 C490.352636,42.6458333 489.292807,39.0361111 489.292807,34.5 C489.292807,29.9638889 490.352636,26.3541667 492.472293,23.6708333 C494.59195,20.9875 497.477945,19.6458333 501.130278,19.6458333 C503.608646,19.6458333 505.809829,20.26875 507.733825,21.5145833 C509.657822,22.7604167 511.141582,24.5013889 512.185106,26.7375 L512.185106,26.7375 L535.077404,26.7375 C534.099101,21.3708333 532.126189,16.675 529.158669,12.65 C526.191149,8.625 522.343155,5.51041667 517.614689,3.30625 C512.886223,1.10208333 507.52186,0 501.521599,0 C494.543035,0 488.477554,1.45347222 483.325156,4.36041667 C478.172759,7.26736111 474.21063,11.3402778 471.438771,16.5791667 C468.666911,21.8180556 467.280981,27.7916667 467.280981,34.5 C467.280981,41.2083333 468.666911,47.1819444 471.438771,52.4208333 C474.21063,57.6597222 478.172759,61.7326389 483.325156,64.6395833 C488.477554,67.5465278 494.543035,69 501.521599,69 Z M566.019742,69 L566.019742,39.0805085 L586.172791,69 L612,69 L586.564113,33.0381356 L610.434715,0 L585.8793,0 L566.019742,29.0423729 L566.019742,0 L544.301407,0 L544.301407,69 L566.019742,69 Z"
    fill="#66D1FF"/>
  </g>
</svg>
