<?xml version="1.0" encoding="UTF-8"?>
<svg width="384px" height="33px" viewBox="0 0 384 33" version="1.1" xmlns="http://www.w3.org/2000/svg" xmlns:xlink="http://www.w3.org/1999/xlink">
    <title>VALENTINPLESSY</title>
    <g id="Page-1" stroke="none" stroke-width="1" fill="none" fill-rule="evenodd">
        <g id="Artboard" transform="translate(0.000000, -49.000000)" fill-rule="nonzero">
            <g id="VALENTINPLESSY" transform="translate(0.000000, 50.000000)">
                <path d="M16.5819936,31.6901798 L33.1190495,0.486860304 L23.7270802,0.486860304 L12.5376049,22.9709544 L9.39196926,0.486860304 L0,0.486860304 L5.34758058,31.6901798 L16.5819936,31.6901798 Z M31.3964395,31.6901798 L34.0028233,26.6002766 L45.2372363,26.6002766 L46.046114,31.6901798 L55.348208,31.6901798 L49.4164379,0.486860304 L39.2605286,0.486860304 L22.1392832,31.6901798 L31.3964395,31.6901798 Z M44.2036703,20.0055325 L37.4180849,20.0055325 L42.6308525,9.86998617 L44.2036703,20.0055325 Z M77.4806245,31.6901798 L78.6939411,25.0954357 L68.8525953,25.0954357 L73.2115475,0.486860304 L64.4037678,0.486860304 L58.7865613,31.6901798 L77.4806245,31.6901798 Z M102.241717,31.6901798 L103.455033,24.7856155 L91.9959321,24.7856155 L93.0294981,19.120332 L103.14047,19.120332 L104.353786,12.5255878 L94.2428147,12.5255878 L95.1415678,7.34716459 L106.600669,7.34716459 L107.813986,0.486860304 L87.5471046,0.486860304 L81.9298981,31.6901798 L102.241717,31.6901798 Z M115.707935,31.5865059 L118.853571,14.148055 L127.391725,31.5865059 L136.244442,31.5865059 L141.816711,0.38318638 L133.008931,0.38318638 L129.863296,18.0429374 L121.280204,0.38318638 L112.472425,0.38318638 L106.855218,31.5865059 L115.707935,31.5865059 Z M157.725851,31.5865029 L162.084804,7.28774774 L170.488144,7.28774774 L171.746399,0.38318342 L146.131937,0.38318342 L144.873683,7.28774774 L153.232086,7.28774774 L148.873134,31.5865029 L157.725851,31.5865029 Z M179.552983,31.6326315 L185.125252,0.429312039 L176.317473,0.429312039 L170.700266,31.6326315 L179.552983,31.6326315 Z M193.094196,31.6326315 L196.239832,14.1941806 L204.777985,31.6326315 L213.630703,31.6326315 L219.202972,0.429312039 L210.395192,0.429312039 L207.249556,18.0890631 L198.666465,0.429312039 L189.858685,0.429312039 L184.241478,31.6326315 L193.094196,31.6326315 Z" id="VALENTIN" fill="#000000"></path>
                <path d="M226.963526,31.6136366 L228.850907,21.07975 L233.209859,21.07975 C235.786285,21.07975 238.048146,20.6150197 239.995445,19.6855591 C241.942743,18.7560986 243.493092,17.5168178 244.646492,15.9677168 C245.799891,14.4186159 246.541363,12.6998514 246.870905,10.8114236 C247.020698,9.98523642 247.095594,9.26232263 247.095594,8.64268224 C247.095594,6.13461401 246.226799,4.13553609 244.48921,2.6454485 C242.751621,1.1553609 240.220133,0.410317099 236.894747,0.410317099 L236.894747,0.410317099 L223.728015,0.410317099 L218.110808,31.6136366 L226.963526,31.6136366 Z M233.614298,14.2194457 L230.109161,14.2194457 L231.322478,7.35914144 L234.827615,7.35914144 C235.906118,7.35914144 236.707507,7.58781825 237.231779,8.04517187 C237.756052,8.50252549 238.018188,9.12954255 238.018188,9.92622305 C238.018188,10.1032632 237.98823,10.39833 237.928313,10.8114236 C237.538853,13.0834384 236.100848,14.2194457 233.614298,14.2194457 L233.614298,14.2194457 Z M265.784664,31.6136366 L266.99798,25.0188925 L257.156635,25.0188925 L261.515587,0.410317099 L252.707807,0.410317099 L247.090601,31.6136366 L265.784664,31.6136366 Z M290.365559,31.6136366 L291.578876,24.7090723 L280.119775,24.7090723 L281.153341,19.0437887 L291.264313,19.0437887 L292.477629,12.4490446 L282.366657,12.4490446 L283.26541,7.27062139 L294.724512,7.27062139 L295.937828,0.410317099 L275.670947,0.410317099 L270.053741,31.6136366 L290.365559,31.6136366 Z M307.801368,31.9234568 C310.377794,31.9234568 312.609697,31.5029865 314.497079,30.662046 C316.38446,29.8211055 317.837444,28.6555914 318.856031,27.1655038 C319.874618,25.6754162 320.383911,24.0009118 320.383911,22.1419907 C320.383911,20.4601096 319.979472,19.0437887 319.170594,17.893028 C318.361717,16.7422673 317.395557,15.8201834 316.272116,15.1267763 C315.148675,14.4333692 313.718159,13.6883254 311.98057,12.8916449 C310.362815,12.1539778 309.171967,11.5122074 308.408027,10.9663337 C307.644087,10.42046 307.262117,9.76393628 307.262117,8.99676247 C307.262117,8.28860202 307.509274,7.73535168 308.003588,7.33701143 C308.497902,6.93867118 309.149498,6.73950106 309.958376,6.73950106 C310.737295,6.73950106 311.351443,6.93867118 311.800819,7.33701143 C312.250196,7.73535168 312.474884,8.28860202 312.474884,8.99676247 C312.474884,9.26232263 312.459905,9.46886943 312.429947,9.61640285 L312.429947,9.61640285 L321.911791,9.61640285 C321.94175,9.38034937 321.956729,9.02626915 321.956729,8.55416219 C321.956729,6.78376108 321.469904,5.24941346 320.496255,3.95111931 C319.522606,2.65282517 318.166987,1.65697455 316.429398,0.963567445 C314.691808,0.270160345 312.699572,-0.0765432048 310.45269,-0.0765432048 C307.96614,-0.0765432048 305.756705,0.329173715 303.824386,1.14060756 C301.892067,1.9520414 300.386656,3.1323088 299.308152,4.68140977 C298.229649,6.23051074 297.690397,8.08205523 297.690397,10.2360432 C297.690397,11.8884176 298.094836,13.2678551 298.903713,14.3743558 C299.712591,15.4808565 300.671261,16.3513037 301.779723,16.9856975 C302.888185,17.6200912 304.296232,18.2913683 306.003862,18.9995287 C307.711493,19.7076892 308.947279,20.3273295 309.711219,20.8584499 C310.475159,21.3895702 310.857129,22.068224 310.857129,22.8944112 C310.857129,23.6025716 310.594992,24.1484453 310.07072,24.5320322 C309.546447,24.9156191 308.849914,25.1074125 307.981119,25.1074125 C306.932574,25.1074125 306.153655,24.827099 305.644361,24.266472 C305.135068,23.705845 304.925359,22.9239178 305.015234,21.9206905 L305.015234,21.9206905 L295.71314,21.9206905 C295.653223,22.5108242 295.623265,22.9239178 295.623265,23.1599713 C295.623265,26.0221198 296.739216,28.1982378 298.97112,29.6883254 C301.203023,31.178413 304.146439,31.9234568 307.801368,31.9234568 Z M336.201964,31.9234568 C338.77839,31.9234568 341.010293,31.5029865 342.897675,30.662046 C344.785056,29.8211055 346.23804,28.6555914 347.256627,27.1655038 C348.275214,25.6754162 348.784507,24.0009118 348.784507,22.1419907 C348.784507,20.4601096 348.380068,19.0437887 347.57119,17.893028 C346.762313,16.7422673 345.796153,15.8201834 344.672712,15.1267763 C343.549271,14.4333692 342.118755,13.6883254 340.381166,12.8916449 C338.763411,12.1539778 337.572563,11.5122074 336.808623,10.9663337 C336.044683,10.42046 335.662713,9.76393628 335.662713,8.99676247 C335.662713,8.28860202 335.90987,7.73535168 336.404184,7.33701143 C336.898498,6.93867118 337.550094,6.73950106 338.358972,6.73950106 C339.137891,6.73950106 339.752039,6.93867118 340.201415,7.33701143 C340.650792,7.73535168 340.87548,8.28860202 340.87548,8.99676247 C340.87548,9.26232263 340.860501,9.46886943 340.830543,9.61640285 L340.830543,9.61640285 L350.312387,9.61640285 C350.342346,9.38034937 350.357325,9.02626915 350.357325,8.55416219 C350.357325,6.78376108 349.8705,5.24941346 348.896851,3.95111931 C347.923202,2.65282517 346.567583,1.65697455 344.829994,0.963567445 C343.092404,0.270160345 341.100169,-0.0765432048 338.853286,-0.0765432048 C336.366736,-0.0765432048 334.157301,0.329173715 332.224982,1.14060756 C330.292663,1.9520414 328.787252,3.1323088 327.708748,4.68140977 C326.630245,6.23051074 326.090993,8.08205523 326.090993,10.2360432 C326.090993,11.8884176 326.495432,13.2678551 327.304309,14.3743558 C328.113187,15.4808565 329.071857,16.3513037 330.180319,16.9856975 C331.288781,17.6200912 332.696828,18.2913683 334.404458,18.9995287 C336.112089,19.7076892 337.347875,20.3273295 338.111815,20.8584499 C338.875755,21.3895702 339.257725,22.068224 339.257725,22.8944112 C339.257725,23.6025716 338.995588,24.1484453 338.471316,24.5320322 C337.947043,24.9156191 337.25051,25.1074125 336.381715,25.1074125 C335.33317,25.1074125 334.554251,24.827099 334.044957,24.266472 C333.535664,23.705845 333.325955,22.9239178 333.41583,21.9206905 L333.41583,21.9206905 L324.113736,21.9206905 C324.053819,22.5108242 324.023861,22.9239178 324.023861,23.1599713 C324.023861,26.0221198 325.139812,28.1982378 327.371716,29.6883254 C329.603619,31.178413 332.547035,31.9234568 336.201964,31.9234568 Z M367.144034,31.6136366 L368.94154,21.6993904 L383.905779,0.410317099 L373.974557,0.410317099 L366.245281,12.4933047 L362.83002,0.410317099 L352.763986,0.410317099 L360.088823,21.6993904 L358.336255,31.6136366 L367.144034,31.6136366 Z" id="PLESSY" fill="#FA4C98"></path>
            </g>
        </g>
    </g>
</svg>