<svg width="384" height="33" viewBox="0 0 384 33" xmlns="http://www.w3.org/2000/svg"><g transform="translate(0 .923)" fill="none"><path d="M16.5819936,31.766723 L33.1190495,0.563403509 L23.7270802,0.563403509 L12.5376049,23.0474976 L9.39196926,0.563403509 L0,0.563403509 L5.34758058,31.766723 L16.5819936,31.766723 Z M31.3964395,31.766723 L34.0028233,26.6768198 L45.2372363,26.6768198 L46.046114,31.766723 L55.348208,31.766723 L49.4164379,0.563403509 L39.2605286,0.563403509 L22.1392832,31.766723 L31.3964395,31.766723 Z M44.2036703,20.0820757 L37.4180849,20.0820757 L42.6308525,9.94652937 L44.2036703,20.0820757 Z M77.4806245,31.766723 L78.6939411,25.1719789 L68.8525953,25.1719789 L73.2115475,0.563403509 L64.4037678,0.563403509 L58.7865613,31.766723 L77.4806245,31.766723 Z M102.241717,31.766723 L103.455033,24.8621587 L91.9959321,24.8621587 L93.0294981,19.1968752 L103.14047,19.1968752 L104.353786,12.602131 L94.2428147,12.602131 L95.1415678,7.4237078 L106.600669,7.4237078 L107.813986,0.563403509 L87.5471046,0.563403509 L81.9298981,31.766723 L102.241717,31.766723 Z M115.707935,31.6630491 L118.853571,14.2245982 L127.391725,31.6630491 L136.244442,31.6630491 L141.816711,0.459729585 L133.008931,0.459729585 L129.863296,18.1194806 L121.280204,0.459729585 L112.472425,0.459729585 L106.855218,31.6630491 L115.707935,31.6630491 Z M157.725851,31.6630461 L162.084804,7.36429094 L170.488144,7.36429094 L171.746399,0.459726625 L146.131937,0.459726625 L144.873683,7.36429094 L153.232086,7.36429094 L148.873134,31.6630461 L157.725851,31.6630461 Z M179.552983,31.7091747 L185.125252,0.505855244 L176.317473,0.505855244 L170.700266,31.7091747 L179.552983,31.7091747 Z M193.094196,31.7091747 L196.239832,14.2707238 L204.777985,31.7091747 L213.630703,31.7091747 L219.202972,0.505855244 L210.395192,0.505855244 L207.249556,18.1656063 L198.666465,0.505855244 L189.858685,0.505855244 L184.241478,31.7091747 L193.094196,31.7091747 Z" fill="#000"/><path d="M226.963526,31.6901798 L228.850907,21.1562932 L233.209859,21.1562932 C235.786285,21.1562932 238.048146,20.6915629 239.995445,19.7621024 C241.942743,18.8326418 243.493092,17.593361 244.646492,16.04426 C245.799891,14.4951591 246.541363,12.7763947 246.870905,10.8879668 C247.020698,10.0617796 247.095594,9.33886584 247.095594,8.71922545 C247.095594,6.21115722 246.226799,4.2120793 244.48921,2.7219917 C242.751621,1.2319041 240.220133,0.486860304 236.894747,0.486860304 L236.894747,0.486860304 L223.728015,0.486860304 L218.110808,31.6901798 L226.963526,31.6901798 Z M233.614298,14.2959889 L230.109161,14.2959889 L231.322478,7.43568465 L234.827615,7.43568465 C235.906118,7.43568465 236.707507,7.66436146 237.231779,8.12171508 C237.756052,8.5790687 238.018188,9.20608575 238.018188,10.0027663 C238.018188,10.1798064 237.98823,10.4748732 237.928313,10.8879668 C237.538853,13.1599816 236.100848,14.2959889 233.614298,14.2959889 L233.614298,14.2959889 Z M265.784664,31.6901798 L266.99798,25.0954357 L257.156635,25.0954357 L261.515587,0.486860304 L252.707807,0.486860304 L247.090601,31.6901798 L265.784664,31.6901798 Z M290.365559,31.6901798 L291.578876,24.7856155 L280.119775,24.7856155 L281.153341,19.120332 L291.264313,19.120332 L292.477629,12.5255878 L282.366657,12.5255878 L283.26541,7.34716459 L294.724512,7.34716459 L295.937828,0.486860304 L275.670947,0.486860304 L270.053741,31.6901798 L290.365559,31.6901798 Z M307.801368,32 C310.377794,32 312.609697,31.5795297 314.497079,30.7385892 C316.38446,29.8976487 317.837444,28.7321346 318.856031,27.242047 C319.874618,25.7519594 320.383911,24.077455 320.383911,22.2185339 C320.383911,20.5366528 319.979472,19.120332 319.170594,17.9695712 C318.361717,16.8188105 317.395557,15.8967266 316.272116,15.2033195 C315.148675,14.5099124 313.718159,13.7648686 311.98057,12.9681881 C310.362815,12.230521 309.171967,11.5887506 308.408027,11.0428769 C307.644087,10.4970032 307.262117,9.84047948 307.262117,9.07330567 C307.262117,8.36514523 307.509274,7.81189488 308.003588,7.41355463 C308.497902,7.01521438 309.149498,6.81604426 309.958376,6.81604426 C310.737295,6.81604426 311.351443,7.01521438 311.800819,7.41355463 C312.250196,7.81189488 312.474884,8.36514523 312.474884,9.07330567 C312.474884,9.33886584 312.459905,9.54541263 312.429947,9.69294606 L312.429947,9.69294606 L321.911791,9.69294606 C321.94175,9.45689258 321.956729,9.10281236 321.956729,8.63070539 C321.956729,6.86030429 321.469904,5.32595666 320.496255,4.02766252 C319.522606,2.72936837 318.166987,1.73351775 316.429398,1.04011065 C314.691808,0.34670355 312.699572,0 310.45269,0 C307.96614,0 305.756705,0.40571692 303.824386,1.21715076 C301.892067,2.0285846 300.386656,3.20885201 299.308152,4.75795297 C298.229649,6.30705394 297.690397,8.15859843 297.690397,10.3125864 C297.690397,11.9649608 298.094836,13.3443983 298.903713,14.450899 C299.712591,15.5573997 300.671261,16.4278469 301.779723,17.0622407 C302.888185,17.6966344 304.296232,18.3679115 306.003862,19.0760719 C307.711493,19.7842324 308.947279,20.4038728 309.711219,20.9349931 C310.475159,21.4661134 310.857129,22.1447672 310.857129,22.9709544 C310.857129,23.6791148 310.594992,24.2249885 310.07072,24.6085754 C309.546447,24.9921623 308.849914,25.1839557 307.981119,25.1839557 C306.932574,25.1839557 306.153655,24.9036422 305.644361,24.3430152 C305.135068,23.7823882 304.925359,23.000461 305.015234,21.9972337 L305.015234,21.9972337 L295.71314,21.9972337 C295.653223,22.5873675 295.623265,23.000461 295.623265,23.2365145 C295.623265,26.098663 296.739216,28.274781 298.97112,29.7648686 C301.203023,31.2549562 304.146439,32 307.801368,32 Z M336.201964,32 C338.77839,32 341.010293,31.5795297 342.897675,30.7385892 C344.785056,29.8976487 346.23804,28.7321346 347.256627,27.242047 C348.275214,25.7519594 348.784507,24.077455 348.784507,22.2185339 C348.784507,20.5366528 348.380068,19.120332 347.57119,17.9695712 C346.762313,16.8188105 345.796153,15.8967266 344.672712,15.2033195 C343.549271,14.5099124 342.118755,13.7648686 340.381166,12.9681881 C338.763411,12.230521 337.572563,11.5887506 336.808623,11.0428769 C336.044683,10.4970032 335.662713,9.84047948 335.662713,9.07330567 C335.662713,8.36514523 335.90987,7.81189488 336.404184,7.41355463 C336.898498,7.01521438 337.550094,6.81604426 338.358972,6.81604426 C339.137891,6.81604426 339.752039,7.01521438 340.201415,7.41355463 C340.650792,7.81189488 340.87548,8.36514523 340.87548,9.07330567 C340.87548,9.33886584 340.860501,9.54541263 340.830543,9.69294606 L340.830543,9.69294606 L350.312387,9.69294606 C350.342346,9.45689258 350.357325,9.10281236 350.357325,8.63070539 C350.357325,6.86030429 349.8705,5.32595666 348.896851,4.02766252 C347.923202,2.72936837 346.567583,1.73351775 344.829994,1.04011065 C343.092404,0.34670355 341.100169,0 338.853286,0 C336.366736,0 334.157301,0.40571692 332.224982,1.21715076 C330.292663,2.0285846 328.787252,3.20885201 327.708748,4.75795297 C326.630245,6.30705394 326.090993,8.15859843 326.090993,10.3125864 C326.090993,11.9649608 326.495432,13.3443983 327.304309,14.450899 C328.113187,15.5573997 329.071857,16.4278469 330.180319,17.0622407 C331.288781,17.6966344 332.696828,18.3679115 334.404458,19.0760719 C336.112089,19.7842324 337.347875,20.4038728 338.111815,20.9349931 C338.875755,21.4661134 339.257725,22.1447672 339.257725,22.9709544 C339.257725,23.6791148 338.995588,24.2249885 338.471316,24.6085754 C337.947043,24.9921623 337.25051,25.1839557 336.381715,25.1839557 C335.33317,25.1839557 334.554251,24.9036422 334.044957,24.3430152 C333.535664,23.7823882 333.325955,23.000461 333.41583,21.9972337 L333.41583,21.9972337 L324.113736,21.9972337 C324.053819,22.5873675 324.023861,23.000461 324.023861,23.2365145 C324.023861,26.098663 325.139812,28.274781 327.371716,29.7648686 C329.603619,31.2549562 332.547035,32 336.201964,32 Z M367.144034,31.6901798 L368.94154,21.7759336 L383.905779,0.486860304 L373.974557,0.486860304 L366.245281,12.5698479 L362.83002,0.486860304 L352.763986,0.486860304 L360.088823,21.7759336 L358.336255,31.6901798 L367.144034,31.6901798 Z" fill="#FFBA00"/></g></svg>