<?xml version="1.0" encoding="UTF-8"?>
<svg width="382px" height="32px" viewBox="0 0 382 32" version="1.1" xmlns="http://www.w3.org/2000/svg" xmlns:xlink="http://www.w3.org/1999/xlink">
    <title>VALENTINPLESSY</title>
    <g id="Page-1" stroke="none" stroke-width="1" fill="none" fill-rule="evenodd">
        <g id="Artboard" transform="translate(0.000000, -50.000000)" fill-rule="nonzero">
            <g id="VALENTINPLESSY" transform="translate(0.000000, 50.000000)">
                <path d="M16.5819936,31.6901798 L33.1190495,0.486860304 L23.7270802,0.486860304 L12.5376049,22.9709544 L9.39196926,0.486860304 L0,0.486860304 L5.34758058,31.6901798 L16.5819936,31.6901798 Z M31.3964395,31.6901798 L34.0028233,26.6002766 L45.2372363,26.6002766 L46.046114,31.6901798 L55.348208,31.6901798 L49.4164379,0.486860304 L39.2605286,0.486860304 L22.1392832,31.6901798 L31.3964395,31.6901798 Z M44.2036703,20.0055325 L37.4180849,20.0055325 L42.6308525,9.86998617 L44.2036703,20.0055325 Z M76.8733433,31.6901798 L78.0866599,25.0954357 L68.2453141,25.0954357 L72.6042663,0.486860304 L63.7964866,0.486860304 L58.1792801,31.6901798 L76.8733433,31.6901798 Z M101.354377,31.6901798 L102.567694,24.7856155 L91.1085928,24.7856155 L92.1421588,19.120332 L102.25313,19.120332 L103.466447,12.5255878 L93.3554754,12.5255878 L94.2542284,7.34716459 L105.71333,7.34716459 L106.926646,0.486860304 L86.6597652,0.486860304 L81.0425588,31.6901798 L101.354377,31.6901798 Z M114.521109,31.6901798 L117.666745,14.2517289 L126.204899,31.6901798 L135.057616,31.6901798 L140.629885,0.486860304 L131.822105,0.486860304 L128.67647,18.1466113 L120.093378,0.486860304 L111.285599,0.486860304 L105.668392,31.6901798 L114.521109,31.6901798 Z M155.903694,31.6901798 L160.262646,7.39142462 L168.665987,7.39142462 L169.924241,0.486860304 L144.30978,0.486860304 L143.051525,7.39142462 L151.409929,7.39142462 L147.050976,31.6901798 L155.903694,31.6901798 Z M177.139231,31.6901798 L182.7115,0.486860304 L173.90372,0.486860304 L168.286513,31.6901798 L177.139231,31.6901798 Z M190.680443,31.6901798 L193.826079,14.2517289 L202.364233,31.6901798 L211.21695,31.6901798 L216.789219,0.486860304 L207.981439,0.486860304 L204.835804,18.1466113 L196.252712,0.486860304 L187.444932,0.486860304 L181.827726,31.6901798 L190.680443,31.6901798 Z" id="VALENTIN" fill="#009FFD"></path>
                <path d="M225.057747,31.6901798 L226.945128,21.1562932 L231.304081,21.1562932 C233.880506,21.1562932 236.142368,20.6915629 238.089666,19.7621024 C240.036964,18.8326418 241.587313,17.593361 242.740713,16.04426 C243.894113,14.4951591 244.635584,12.7763947 244.965127,10.8879668 C245.114919,10.0617796 245.189815,9.33886584 245.189815,8.71922545 C245.189815,6.21115722 244.321021,4.2120793 242.583431,2.7219917 C240.845842,1.2319041 238.314354,0.486860304 234.988968,0.486860304 L234.988968,0.486860304 L221.822236,0.486860304 L216.20503,31.6901798 L225.057747,31.6901798 Z M231.70852,14.2959889 L228.203383,14.2959889 L229.416699,7.43568465 L232.921836,7.43568465 C234.00034,7.43568465 234.801728,7.66436146 235.326001,8.12171508 C235.850273,8.5790687 236.112409,9.20608575 236.112409,10.0027663 C236.112409,10.1798064 236.082451,10.4748732 236.022534,10.8879668 C235.633075,13.1599816 234.19507,14.2959889 231.70852,14.2959889 L231.70852,14.2959889 Z M263.878885,31.6901798 L265.092202,25.0954357 L255.250856,25.0954357 L259.609808,0.486860304 L250.802029,0.486860304 L245.184822,31.6901798 L263.878885,31.6901798 Z M288.459781,31.6901798 L289.673098,24.7856155 L278.213996,24.7856155 L279.247562,19.120332 L289.358534,19.120332 L290.571851,12.5255878 L280.460879,12.5255878 L281.359632,7.34716459 L292.818733,7.34716459 L294.03205,0.486860304 L273.765169,0.486860304 L268.147962,31.6901798 L288.459781,31.6901798 Z M305.89559,32 C308.472015,32 310.703919,31.5795297 312.5913,30.7385892 C314.478681,29.8976487 315.931665,28.7321346 316.950252,27.242047 C317.968839,25.7519594 318.478132,24.077455 318.478132,22.2185339 C318.478132,20.5366528 318.073694,19.120332 317.264816,17.9695712 C316.455938,16.8188105 315.489779,15.8967266 314.366337,15.2033195 C313.242896,14.5099124 311.812381,13.7648686 310.074792,12.9681881 C308.457036,12.230521 307.266188,11.5887506 306.502248,11.0428769 C305.738308,10.4970032 305.356338,9.84047948 305.356338,9.07330567 C305.356338,8.36514523 305.603495,7.81189488 306.097809,7.41355463 C306.592123,7.01521438 307.243719,6.81604426 308.052597,6.81604426 C308.831516,6.81604426 309.445664,7.01521438 309.895041,7.41355463 C310.344417,7.81189488 310.569106,8.36514523 310.569106,9.07330567 C310.569106,9.33886584 310.554126,9.54541263 310.524168,9.69294606 L310.524168,9.69294606 L320.006013,9.69294606 C320.035971,9.45689258 320.05095,9.10281236 320.05095,8.63070539 C320.05095,6.86030429 319.564126,5.32595666 318.590477,4.02766252 C317.616827,2.72936837 316.261208,1.73351775 314.523619,1.04011065 C312.78603,0.34670355 310.793794,0 308.546911,0 C306.060361,0 303.850927,0.40571692 301.918608,1.21715076 C299.986289,2.0285846 298.480877,3.20885201 297.402374,4.75795297 C296.32387,6.30705394 295.784618,8.15859843 295.784618,10.3125864 C295.784618,11.9649608 296.189057,13.3443983 296.997935,14.450899 C297.806813,15.5573997 298.765482,16.4278469 299.873945,17.0622407 C300.982407,17.6966344 302.390453,18.3679115 304.098084,19.0760719 C305.805715,19.7842324 307.0415,20.4038728 307.80544,20.9349931 C308.56938,21.4661134 308.95135,22.1447672 308.95135,22.9709544 C308.95135,23.6791148 308.689214,24.2249885 308.164941,24.6085754 C307.640669,24.9921623 306.944135,25.1839557 306.07534,25.1839557 C305.026795,25.1839557 304.247876,24.9036422 303.738583,24.3430152 C303.229289,23.7823882 303.01958,23.000461 303.109455,21.9972337 L303.109455,21.9972337 L293.807362,21.9972337 C293.747445,22.5873675 293.717486,23.000461 293.717486,23.2365145 C293.717486,26.098663 294.833438,28.274781 297.065341,29.7648686 C299.297245,31.2549562 302.240661,32 305.89559,32 Z M334.296186,32 C336.872611,32 339.104515,31.5795297 340.991896,30.7385892 C342.879277,29.8976487 344.332262,28.7321346 345.350848,27.242047 C346.369435,25.7519594 346.878728,24.077455 346.878728,22.2185339 C346.878728,20.5366528 346.47429,19.120332 345.665412,17.9695712 C344.856534,16.8188105 343.890375,15.8967266 342.766933,15.2033195 C341.643492,14.5099124 340.212977,13.7648686 338.475388,12.9681881 C336.857632,12.230521 335.666784,11.5887506 334.902844,11.0428769 C334.138904,10.4970032 333.756934,9.84047948 333.756934,9.07330567 C333.756934,8.36514523 334.004091,7.81189488 334.498405,7.41355463 C334.99272,7.01521438 335.644315,6.81604426 336.453193,6.81604426 C337.232113,6.81604426 337.84626,7.01521438 338.295637,7.41355463 C338.745013,7.81189488 338.969702,8.36514523 338.969702,9.07330567 C338.969702,9.33886584 338.954723,9.54541263 338.924764,9.69294606 L338.924764,9.69294606 L348.406609,9.69294606 C348.436567,9.45689258 348.451546,9.10281236 348.451546,8.63070539 C348.451546,6.86030429 347.964722,5.32595666 346.991073,4.02766252 C346.017423,2.72936837 344.661804,1.73351775 342.924215,1.04011065 C341.186626,0.34670355 339.19439,0 336.947507,0 C334.460957,0 332.251523,0.40571692 330.319204,1.21715076 C328.386885,2.0285846 326.881473,3.20885201 325.80297,4.75795297 C324.724466,6.30705394 324.185214,8.15859843 324.185214,10.3125864 C324.185214,11.9649608 324.589653,13.3443983 325.398531,14.450899 C326.207409,15.5573997 327.166078,16.4278469 328.274541,17.0622407 C329.383003,17.6966344 330.791049,18.3679115 332.49868,19.0760719 C334.206311,19.7842324 335.442096,20.4038728 336.206036,20.9349931 C336.969976,21.4661134 337.351946,22.1447672 337.351946,22.9709544 C337.351946,23.6791148 337.08981,24.2249885 336.565537,24.6085754 C336.041265,24.9921623 335.344731,25.1839557 334.475937,25.1839557 C333.427391,25.1839557 332.648472,24.9036422 332.139179,24.3430152 C331.629885,23.7823882 331.420176,23.000461 331.510051,21.9972337 L331.510051,21.9972337 L322.207958,21.9972337 C322.148041,22.5873675 322.118082,23.000461 322.118082,23.2365145 C322.118082,26.098663 323.234034,28.274781 325.465937,29.7648686 C327.697841,31.2549562 330.641257,32 334.296186,32 Z M365.238256,31.6901798 L367.035762,21.7759336 L382,0.486860304 L372.068779,0.486860304 L364.339503,12.5698479 L360.924241,0.486860304 L350.858207,0.486860304 L358.183044,21.7759336 L356.430476,31.6901798 L365.238256,31.6901798 Z" id="PLESSY" fill="#FA4C98"></path>
            </g>
        </g>
    </g>
</svg>