<svg width="384" height="32" viewBox="0 0 384 32" xmlns="http://www.w3.org/2000/svg"><g fill="none"><path d="M23.625,32 L34.335,0 L23.715,0 L17.19,22.0112994 L10.62,0 L0,0 L10.71,32 L23.625,32 Z M38.485,32 L40.06,27.1638418 L50.68,27.1638418 L52.255,32 L62.785,32 L51.175,0 L39.655,0 L28,32 L38.485,32 Z M48.61,19.67 L42.85,19.67 L45.73,10.805 L48.61,19.67 Z M84.62,32 L84.62,24.4067797 L74.99,24.4067797 L74.99,0 L65,0 L65,32 L84.62,32 Z M109.24,32 L109.24,24 L97.99,24 L97.99,19.480226 L107.89,19.480226 L107.89,11.9322034 L97.99,11.9322034 L97.99,8 L109.24,8 L109.24,0 L88,0 L88,32 L109.24,32 Z M122.99,32 L122.99,15.9096045 L133.565,32 L143.555,32 L143.555,0 L133.565,0 L133.565,16.3615819 L122.99,0 L113,0 L113,32 L122.99,32 Z M164.36,32 L164.36,7.95480226 L172.82,7.95480226 L172.82,0 L146,0 L146,7.95480226 L154.37,7.95480226 L154.37,32 L164.36,32 Z M185.99,32 L185.99,0 L176,0 L176,32 L185.99,32 Z M198.99,32 L198.99,15.9096045 L209.565,32 L219.555,32 L219.555,0 L209.565,0 L209.565,16.3615819 L198.99,0 L189,0 L189,32 L198.99,32 Z" fill="#000"/><path d="M232.99,32 L232.99,21.8305085 L236.95,21.8305085 C239.53,21.8305085 241.7275,21.3483992 243.5425,20.3841808 C245.3575,19.4199623 246.73,18.1167608 247.66,16.4745763 C248.59,14.8323917 249.055,13.0018832 249.055,10.9830508 C249.055,7.63841808 248.0125,4.97175141 245.9275,2.98305085 C243.8425,0.994350282 240.85,0 236.95,0 L236.95,0 L223,0 L223,32 L232.99,32 Z M235.835,14 L233,14 L233,8.15 L235.835,8.15 C237.905,8.15 238.94,9.125 238.94,11.075 C238.94,13.025 237.905,14 235.835,14 L235.835,14 Z M271.62,32 L271.62,24.4067797 L261.99,24.4067797 L261.99,0 L252,0 L252,32 L271.62,32 Z M296.24,32 L296.24,24 L284.99,24 L284.99,19.480226 L294.89,19.480226 L294.89,11.9322034 L284.99,11.9322034 L284.99,8 L296.24,8 L296.24,0 L275,0 L275,32 L296.24,32 Z M312.455,32 C314.975,32 317.15,31.5745071 318.98,30.7235213 C320.81,29.8725355 322.205,28.691426 323.165,27.1801926 C324.125,25.6689592 324.605,23.9596515 324.605,22.0522696 C324.605,20.2329207 324.125,18.7216873 323.165,17.5185695 C322.205,16.3154516 321.0725,15.3764328 319.7675,14.7015131 C318.4625,14.0265933 316.805,13.3223292 314.795,12.5887208 C313.055,11.9431453 311.7875,11.392939 310.9925,10.9381018 C310.1975,10.4832646 309.8,9.90371389 309.8,9.19944979 C309.8,8.70059606 309.935,8.31178359 310.205,8.03301238 C310.475,7.75424117 310.82,7.61485557 311.24,7.61485557 C311.84,7.61485557 312.35,7.80559376 312.77,8.18707015 C313.19,8.56854654 313.415,9.19944979 313.445,10.0797799 L313.445,10.0797799 L324.2,10.0797799 C324.08,6.88124713 322.8725,4.40165062 320.5775,2.64099037 C318.2825,0.880330124 315.185,0 311.285,0 C308.975,0 306.8975,0.366804218 305.0525,1.10041265 C303.2075,1.83402109 301.7525,2.91242549 300.6875,4.33562586 C299.6225,5.75882623 299.09,7.48280605 299.09,9.50756534 C299.06,11.5323246 299.525,13.1902797 300.485,14.4814305 C301.445,15.7725814 302.5925,16.7556167 303.9275,17.4305365 C305.2625,18.1054562 306.95,18.7950481 308.99,19.4993122 C310.7,20.086199 311.96,20.607061 312.77,21.0618982 C313.58,21.5167354 313.985,22.1109583 313.985,22.8445667 C313.985,23.3727648 313.7975,23.7615773 313.4225,24.0110041 C313.0475,24.260431 312.59,24.3851444 312.05,24.3851444 C310.58,24.3851444 309.77,23.4901421 309.62,21.7001376 L309.62,21.7001376 L299,21.7001376 C299.21,25.0747364 300.5525,27.6350298 303.0275,29.3810179 C305.5025,31.127006 308.645,32 312.455,32 Z M340.455,32 C342.975,32 345.15,31.5745071 346.98,30.7235213 C348.81,29.8725355 350.205,28.691426 351.165,27.1801926 C352.125,25.6689592 352.605,23.9596515 352.605,22.0522696 C352.605,20.2329207 352.125,18.7216873 351.165,17.5185695 C350.205,16.3154516 349.0725,15.3764328 347.7675,14.7015131 C346.4625,14.0265933 344.805,13.3223292 342.795,12.5887208 C341.055,11.9431453 339.7875,11.392939 338.9925,10.9381018 C338.1975,10.4832646 337.8,9.90371389 337.8,9.19944979 C337.8,8.70059606 337.935,8.31178359 338.205,8.03301238 C338.475,7.75424117 338.82,7.61485557 339.24,7.61485557 C339.84,7.61485557 340.35,7.80559376 340.77,8.18707015 C341.19,8.56854654 341.415,9.19944979 341.445,10.0797799 L341.445,10.0797799 L352.2,10.0797799 C352.08,6.88124713 350.8725,4.40165062 348.5775,2.64099037 C346.2825,0.880330124 343.185,0 339.285,0 C336.975,0 334.8975,0.366804218 333.0525,1.10041265 C331.2075,1.83402109 329.7525,2.91242549 328.6875,4.33562586 C327.6225,5.75882623 327.09,7.48280605 327.09,9.50756534 C327.06,11.5323246 327.525,13.1902797 328.485,14.4814305 C329.445,15.7725814 330.5925,16.7556167 331.9275,17.4305365 C333.2625,18.1054562 334.95,18.7950481 336.99,19.4993122 C338.7,20.086199 339.96,20.607061 340.77,21.0618982 C341.58,21.5167354 341.985,22.1109583 341.985,22.8445667 C341.985,23.3727648 341.7975,23.7615773 341.4225,24.0110041 C341.0475,24.260431 340.59,24.3851444 340.05,24.3851444 C338.58,24.3851444 337.77,23.4901421 337.62,21.7001376 L337.62,21.7001376 L327,21.7001376 C327.21,25.0747364 328.5525,27.6350298 331.0275,29.3810179 C333.5025,31.127006 336.645,32 340.455,32 Z M372.42,32 L372.42,22.2824859 L383.85,0 L372.6,0 L367.515,11.3446328 L362.43,0 L351,0 L362.43,22.2824859 L362.43,32 L372.42,32 Z" fill="#FA4C98"/></g></svg>