<svg width="386" height="32" viewBox="0 0 386 32" xmlns="http://www.w3.org/2000/svg"><g fill="none"><path d="M23.625,32 L34.335,0 L23.715,0 L17.19,22.0112994 L10.62,0 L0,0 L10.71,32 L23.625,32 Z M38.485,32 L40.06,27.1638418 L50.68,27.1638418 L52.255,32 L62.785,32 L51.175,0 L39.655,0 L28,32 L38.485,32 Z M48.61,19.67 L42.85,19.67 L45.73,10.805 L48.61,19.67 Z M85.02,32 L85.02,24.4067797 L75.39,24.4067797 L75.39,0 L65.4,0 L65.4,32 L85.02,32 Z M109.74,32 L109.74,24 L98.49,24 L98.49,19.480226 L108.39,19.480226 L108.39,11.9322034 L98.49,11.9322034 L98.49,8 L109.74,8 L109.74,0 L88.5,0 L88.5,32 L109.74,32 Z M122.99,32 L122.99,15.9096045 L133.565,32 L143.555,32 L143.555,0 L133.565,0 L133.565,16.3615819 L122.99,0 L113,0 L113,32 L122.99,32 Z M164.86,32 L164.86,7.95480226 L173.32,7.95480226 L173.32,0 L146.5,0 L146.5,7.95480226 L154.87,7.95480226 L154.87,32 L164.86,32 Z M186.49,32 L186.49,0 L176.5,0 L176.5,32 L186.49,32 Z M199.69,32 L199.69,15.9096045 L210.265,32 L220.255,32 L220.255,0 L210.265,0 L210.265,16.3615819 L199.69,0 L189.7,0 L189.7,32 L199.69,32 Z" fill="#000"/><path d="M234.29,32 L234.29,21.8305085 L238.25,21.8305085 C240.83,21.8305085 243.0275,21.3483992 244.8425,20.3841808 C246.6575,19.4199623 248.03,18.1167608 248.96,16.4745763 C249.89,14.8323917 250.355,13.0018832 250.355,10.9830508 C250.355,7.63841808 249.3125,4.97175141 247.2275,2.98305085 C245.1425,0.994350282 242.15,0 238.25,0 L238.25,0 L224.3,0 L224.3,32 L234.29,32 Z M236.835,14 L234,14 L234,8.15 L236.835,8.15 C238.905,8.15 239.94,9.125 239.94,11.075 C239.94,13.025 238.905,14 236.835,14 L236.835,14 Z M273.02,32 L273.02,24.4067797 L263.39,24.4067797 L263.39,0 L253.4,0 L253.4,32 L273.02,32 Z M297.74,32 L297.74,24 L286.49,24 L286.49,19.480226 L296.39,19.480226 L296.39,11.9322034 L286.49,11.9322034 L286.49,8 L297.74,8 L297.74,0 L276.5,0 L276.5,32 L297.74,32 Z M314.455,32 C316.975,32 319.15,31.5745071 320.98,30.7235213 C322.81,29.8725355 324.205,28.691426 325.165,27.1801926 C326.125,25.6689592 326.605,23.9596515 326.605,22.0522696 C326.605,20.2329207 326.125,18.7216873 325.165,17.5185695 C324.205,16.3154516 323.0725,15.3764328 321.7675,14.7015131 C320.4625,14.0265933 318.805,13.3223292 316.795,12.5887208 C315.055,11.9431453 313.7875,11.392939 312.9925,10.9381018 C312.1975,10.4832646 311.8,9.90371389 311.8,9.19944979 C311.8,8.70059606 311.935,8.31178359 312.205,8.03301238 C312.475,7.75424117 312.82,7.61485557 313.24,7.61485557 C313.84,7.61485557 314.35,7.80559376 314.77,8.18707015 C315.19,8.56854654 315.415,9.19944979 315.445,10.0797799 L315.445,10.0797799 L326.2,10.0797799 C326.08,6.88124713 324.8725,4.40165062 322.5775,2.64099037 C320.2825,0.880330124 317.185,0 313.285,0 C310.975,0 308.8975,0.366804218 307.0525,1.10041265 C305.2075,1.83402109 303.7525,2.91242549 302.6875,4.33562586 C301.6225,5.75882623 301.09,7.48280605 301.09,9.50756534 C301.06,11.5323246 301.525,13.1902797 302.485,14.4814305 C303.445,15.7725814 304.5925,16.7556167 305.9275,17.4305365 C307.2625,18.1054562 308.95,18.7950481 310.99,19.4993122 C312.7,20.086199 313.96,20.607061 314.77,21.0618982 C315.58,21.5167354 315.985,22.1109583 315.985,22.8445667 C315.985,23.3727648 315.7975,23.7615773 315.4225,24.0110041 C315.0475,24.260431 314.59,24.3851444 314.05,24.3851444 C312.58,24.3851444 311.77,23.4901421 311.62,21.7001376 L311.62,21.7001376 L301,21.7001376 C301.21,25.0747364 302.5525,27.6350298 305.0275,29.3810179 C307.5025,31.127006 310.645,32 314.455,32 Z M342.455,32 C344.975,32 347.15,31.5745071 348.98,30.7235213 C350.81,29.8725355 352.205,28.691426 353.165,27.1801926 C354.125,25.6689592 354.605,23.9596515 354.605,22.0522696 C354.605,20.2329207 354.125,18.7216873 353.165,17.5185695 C352.205,16.3154516 351.0725,15.3764328 349.7675,14.7015131 C348.4625,14.0265933 346.805,13.3223292 344.795,12.5887208 C343.055,11.9431453 341.7875,11.392939 340.9925,10.9381018 C340.1975,10.4832646 339.8,9.90371389 339.8,9.19944979 C339.8,8.70059606 339.935,8.31178359 340.205,8.03301238 C340.475,7.75424117 340.82,7.61485557 341.24,7.61485557 C341.84,7.61485557 342.35,7.80559376 342.77,8.18707015 C343.19,8.56854654 343.415,9.19944979 343.445,10.0797799 L343.445,10.0797799 L354.2,10.0797799 C354.08,6.88124713 352.8725,4.40165062 350.5775,2.64099037 C348.2825,0.880330124 345.185,0 341.285,0 C338.975,0 336.8975,0.366804218 335.0525,1.10041265 C333.2075,1.83402109 331.7525,2.91242549 330.6875,4.33562586 C329.6225,5.75882623 329.09,7.48280605 329.09,9.50756534 C329.06,11.5323246 329.525,13.1902797 330.485,14.4814305 C331.445,15.7725814 332.5925,16.7556167 333.9275,17.4305365 C335.2625,18.1054562 336.95,18.7950481 338.99,19.4993122 C340.7,20.086199 341.96,20.607061 342.77,21.0618982 C343.58,21.5167354 343.985,22.1109583 343.985,22.8445667 C343.985,23.3727648 343.7975,23.7615773 343.4225,24.0110041 C343.0475,24.260431 342.59,24.3851444 342.05,24.3851444 C340.58,24.3851444 339.77,23.4901421 339.62,21.7001376 L339.62,21.7001376 L329,21.7001376 C329.21,25.0747364 330.5525,27.6350298 333.0275,29.3810179 C335.5025,31.127006 338.645,32 342.455,32 Z M374.42,32 L374.42,22.2824859 L385.85,0 L374.6,0 L369.515,11.3446328 L364.43,0 L353,0 L364.43,22.2824859 L364.43,32 L374.42,32 Z" fill="#FA4C98"/></g></svg>