<svg width="384" height="32" viewBox="0 0 384 32" xmlns="http://www.w3.org/2000/svg"><g fill="none"><path d="M16.5819936,32 L33.1190495,0 L23.7270802,0 L12.5376049,23.058156 L9.39196926,0 L0,0 L5.34758058,32 L16.5819936,32 Z M31.3964395,32 L34.0028233,26.7801418 L45.2372363,26.7801418 L46.046114,32 L55.348208,32 L49.4164379,0 L39.2605286,0 L22.1392832,32 L31.3964395,32 Z M44.2036703,20.0055325 L37.4180849,20.0055325 L42.6308525,9.86998617 L44.2036703,20.0055325 Z M77.4806245,32 L78.6939411,25.2368794 L68.8525953,25.2368794 L73.2115475,0 L64.4037678,0 L58.7865613,32 L77.4806245,32 Z M102.241717,32 L103.455033,24.9191489 L91.9959321,24.9191489 L93.0294981,19.1092199 L103.14047,19.1092199 L104.353786,12.3460993 L94.2428147,12.3460993 L95.1415678,7.03546099 L106.600669,7.03546099 L107.813986,0 L87.5471046,0 L81.9298981,32 L102.241717,32 Z M115.707935,32 L118.853571,14.1163121 L127.391725,32 L136.244442,32 L141.816711,0 L133.008931,0 L129.863296,18.1106383 L121.280204,0 L112.472425,0 L106.855218,32 L115.707935,32 Z M157.725851,32 L162.084804,7.08085106 L170.488144,7.08085106 L171.746399,0 L146.131937,0 L144.873683,7.08085106 L153.232086,7.08085106 L148.873134,32 L157.725851,32 Z M179.552983,32 L185.125252,0 L176.317473,0 L170.700266,32 L179.552983,32 Z M193.094196,32 L196.239832,14.1163121 L204.777985,32 L213.630703,32 L219.202972,0 L210.395192,0 L207.249556,18.1106383 L198.666465,0 L189.858685,0 L184.241478,32 L193.094196,32 Z" fill="#000"/><path d="M226.963526,32 L228.850907,21.1971631 L233.209859,21.1971631 C235.786285,21.1971631 238.048146,20.7205674 239.995445,19.7673759 C241.942743,18.8141844 243.493092,17.5432624 244.646492,15.9546099 C245.799891,14.3659574 246.541363,12.6033097 246.870905,10.6666667 C247.020698,9.81938534 247.095594,9.07801418 247.095594,8.44255319 C247.095594,5.87044917 246.226799,3.82033097 244.48921,2.29219858 C242.751621,0.764066194 240.220133,0 236.894747,0 L236.894747,0 L223.728015,0 L218.110808,32 L226.963526,32 Z M233.614298,14.2194457 L230.109161,14.2194457 L231.322478,7.35914144 L234.827615,7.35914144 C235.906118,7.35914144 236.707507,7.58781825 237.231779,8.04517187 C237.756052,8.50252549 238.018188,9.12954255 238.018188,9.92622305 C238.018188,10.1032632 237.98823,10.39833 237.928313,10.8114236 C237.538853,13.0834384 236.100848,14.2194457 233.614298,14.2194457 L233.614298,14.2194457 Z M265.784664,32 L266.99798,25.2368794 L257.156635,25.2368794 L261.515587,0 L252.707807,0 L247.090601,32 L265.784664,32 Z M290.365559,32 L291.578876,24.9191489 L280.119775,24.9191489 L281.153341,19.1092199 L291.264313,19.1092199 L292.477629,12.3460993 L282.366657,12.3460993 L283.26541,7.03546099 L294.724512,7.03546099 L295.937828,0 L275.670947,0 L270.053741,32 L290.365559,32 Z M307.801368,32 C310.377794,32 312.609697,31.5795297 314.497079,30.7385892 C316.38446,29.8976487 317.837444,28.7321346 318.856031,27.242047 C319.874618,25.7519594 320.383911,24.077455 320.383911,22.2185339 C320.383911,20.5366528 319.979472,19.120332 319.170594,17.9695712 C318.361717,16.8188105 317.395557,15.8967266 316.272116,15.2033195 C315.148675,14.5099124 313.718159,13.7648686 311.98057,12.9681881 C310.362815,12.230521 309.171967,11.5887506 308.408027,11.0428769 C307.644087,10.4970032 307.262117,9.84047948 307.262117,9.07330567 C307.262117,8.36514523 307.509274,7.81189488 308.003588,7.41355463 C308.497902,7.01521438 309.149498,6.81604426 309.958376,6.81604426 C310.737295,6.81604426 311.351443,7.01521438 311.800819,7.41355463 C312.250196,7.81189488 312.474884,8.36514523 312.474884,9.07330567 C312.474884,9.33886584 312.459905,9.54541263 312.429947,9.69294606 L312.429947,9.69294606 L321.911791,9.69294606 C321.94175,9.45689258 321.956729,9.10281236 321.956729,8.63070539 C321.956729,6.86030429 321.469904,5.32595666 320.496255,4.02766252 C319.522606,2.72936837 318.166987,1.73351775 316.429398,1.04011065 C314.691808,0.34670355 312.699572,0 310.45269,0 C307.96614,0 305.756705,0.40571692 303.824386,1.21715076 C301.892067,2.0285846 300.386656,3.20885201 299.308152,4.75795297 C298.229649,6.30705394 297.690397,8.15859843 297.690397,10.3125864 C297.690397,11.9649608 298.094836,13.3443983 298.903713,14.450899 C299.712591,15.5573997 300.671261,16.4278469 301.779723,17.0622407 C302.888185,17.6966344 304.296232,18.3679115 306.003862,19.0760719 C307.711493,19.7842324 308.947279,20.4038728 309.711219,20.9349931 C310.475159,21.4661134 310.857129,22.1447672 310.857129,22.9709544 C310.857129,23.6791148 310.594992,24.2249885 310.07072,24.6085754 C309.546447,24.9921623 308.849914,25.1839557 307.981119,25.1839557 C306.932574,25.1839557 306.153655,24.9036422 305.644361,24.3430152 C305.135068,23.7823882 304.925359,23.000461 305.015234,21.9972337 L305.015234,21.9972337 L295.71314,21.9972337 C295.653223,22.5873675 295.623265,23.000461 295.623265,23.2365145 C295.623265,26.098663 296.739216,28.274781 298.97112,29.7648686 C301.203023,31.2549562 304.146439,32 307.801368,32 Z M336.201964,32 C338.77839,32 341.010293,31.5795297 342.897675,30.7385892 C344.785056,29.8976487 346.23804,28.7321346 347.256627,27.242047 C348.275214,25.7519594 348.784507,24.077455 348.784507,22.2185339 C348.784507,20.5366528 348.380068,19.120332 347.57119,17.9695712 C346.762313,16.8188105 345.796153,15.8967266 344.672712,15.2033195 C343.549271,14.5099124 342.118755,13.7648686 340.381166,12.9681881 C338.763411,12.230521 337.572563,11.5887506 336.808623,11.0428769 C336.044683,10.4970032 335.662713,9.84047948 335.662713,9.07330567 C335.662713,8.36514523 335.90987,7.81189488 336.404184,7.41355463 C336.898498,7.01521438 337.550094,6.81604426 338.358972,6.81604426 C339.137891,6.81604426 339.752039,7.01521438 340.201415,7.41355463 C340.650792,7.81189488 340.87548,8.36514523 340.87548,9.07330567 C340.87548,9.33886584 340.860501,9.54541263 340.830543,9.69294606 L340.830543,9.69294606 L350.312387,9.69294606 C350.342346,9.45689258 350.357325,9.10281236 350.357325,8.63070539 C350.357325,6.86030429 349.8705,5.32595666 348.896851,4.02766252 C347.923202,2.72936837 346.567583,1.73351775 344.829994,1.04011065 C343.092404,0.34670355 341.100169,0 338.853286,0 C336.366736,0 334.157301,0.40571692 332.224982,1.21715076 C330.292663,2.0285846 328.787252,3.20885201 327.708748,4.75795297 C326.630245,6.30705394 326.090993,8.15859843 326.090993,10.3125864 C326.090993,11.9649608 326.495432,13.3443983 327.304309,14.450899 C328.113187,15.5573997 329.071857,16.4278469 330.180319,17.0622407 C331.288781,17.6966344 332.696828,18.3679115 334.404458,19.0760719 C336.112089,19.7842324 337.347875,20.4038728 338.111815,20.9349931 C338.875755,21.4661134 339.257725,22.1447672 339.257725,22.9709544 C339.257725,23.6791148 338.995588,24.2249885 338.471316,24.6085754 C337.947043,24.9921623 337.25051,25.1839557 336.381715,25.1839557 C335.33317,25.1839557 334.554251,24.9036422 334.044957,24.3430152 C333.535664,23.7823882 333.325955,23.000461 333.41583,21.9972337 L333.41583,21.9972337 L324.113736,21.9972337 C324.053819,22.5873675 324.023861,23.000461 324.023861,23.2365145 C324.023861,26.098663 325.139812,28.274781 327.371716,29.7648686 C329.603619,31.2549562 332.547035,32 336.201964,32 Z M367.144034,32 L368.94154,21.8326241 L383.905779,0 L373.974557,0 L366.245281,12.3914894 L362.83002,0 L352.763986,0 L360.088823,21.8326241 L358.336255,32 L367.144034,32 Z" fill="#FFBA00"/></g></svg>